<svg width="14" height="14" viewBox="0 0 14 14" fill="none" xmlns="http://www.w3.org/2000/svg">
<path d="M9.33325 4.66675C10.2615 4.66675 11.1517 5.0355 11.8081 5.69187C12.4645 6.34825 12.8333 7.23849 12.8333 8.16675V12.2501H10.4999V8.16675C10.4999 7.85733 10.377 7.56058 10.1582 7.34179C9.93942 7.123 9.64267 7.00008 9.33325 7.00008C9.02383 7.00008 8.72709 7.123 8.50829 7.34179C8.2895 7.56058 8.16659 7.85733 8.16659 8.16675V12.2501H5.83325V8.16675C5.83325 7.23849 6.202 6.34825 6.85838 5.69187C7.51476 5.0355 8.40499 4.66675 9.33325 4.66675V4.66675Z" fill="#101010"/>
<path d="M1.16663 5.25H3.49996V12.25H1.16663V5.25Z" fill="#101010"/>
<path d="M2.33329 3.50008C2.97762 3.50008 3.49996 2.97775 3.49996 2.33341C3.49996 1.68908 2.97762 1.16675 2.33329 1.16675C1.68896 1.16675 1.16663 1.68908 1.16663 2.33341C1.16663 2.97775 1.68896 3.50008 2.33329 3.50008Z" fill="#101010"/>
</svg>
