<svg id="logo-svg" width="164" height="29" viewBox="0 0 164 29" fill="none" xmlns="http://www.w3.org/2000/svg">
<path d="M42.318 20.11C42.768 20.11 43.146 20.056 43.452 19.948C43.758 19.84 44.001 19.696 44.181 19.516C44.367 19.336 44.499 19.126 44.577 18.886C44.661 18.646 44.703 18.391 44.703 18.121C44.703 17.839 44.658 17.587 44.568 17.365C44.478 17.137 44.337 16.945 44.145 16.789C43.953 16.627 43.704 16.504 43.398 16.42C43.098 16.336 42.735 16.294 42.309 16.294H39.87V20.11H42.318ZM39.87 10.858V14.62H41.796C42.624 14.62 43.248 14.47 43.668 14.17C44.094 13.87 44.307 13.393 44.307 12.739C44.307 12.061 44.115 11.578 43.731 11.29C43.347 11.002 42.747 10.858 41.931 10.858H39.87ZM41.931 8.986C42.783 8.986 43.512 9.067 44.118 9.229C44.724 9.391 45.219 9.622 45.603 9.922C45.993 10.222 46.278 10.585 46.458 11.011C46.638 11.437 46.728 11.917 46.728 12.451C46.728 12.757 46.683 13.051 46.593 13.333C46.503 13.609 46.362 13.87 46.17 14.116C45.984 14.356 45.744 14.575 45.45 14.773C45.162 14.971 44.817 15.139 44.415 15.277C46.203 15.679 47.097 16.645 47.097 18.175C47.097 18.727 46.992 19.237 46.782 19.705C46.572 20.173 46.266 20.578 45.864 20.92C45.462 21.256 44.967 21.52 44.379 21.712C43.791 21.904 43.119 22 42.363 22H37.449V8.986H41.931ZM53.2297 15.178C53.6857 15.178 54.0817 15.121 54.4177 15.007C54.7597 14.893 55.0387 14.737 55.2547 14.539C55.4767 14.335 55.6417 14.095 55.7497 13.819C55.8577 13.543 55.9117 13.24 55.9117 12.91C55.9117 12.25 55.6927 11.743 55.2547 11.389C54.8227 11.035 54.1597 10.858 53.2657 10.858H51.7177V15.178H53.2297ZM59.4577 22H57.2707C56.8567 22 56.5567 21.838 56.3707 21.514L53.6347 17.347C53.5327 17.191 53.4187 17.08 53.2927 17.014C53.1727 16.948 52.9927 16.915 52.7527 16.915H51.7177V22H49.2967V8.986H53.2657C54.1477 8.986 54.9037 9.079 55.5337 9.265C56.1697 9.445 56.6887 9.7 57.0907 10.03C57.4987 10.36 57.7987 10.756 57.9907 11.218C58.1827 11.674 58.2787 12.178 58.2787 12.73C58.2787 13.168 58.2127 13.582 58.0807 13.972C57.9547 14.362 57.7687 14.716 57.5227 15.034C57.2827 15.352 56.9827 15.631 56.6227 15.871C56.2687 16.111 55.8637 16.3 55.4077 16.438C55.5637 16.528 55.7077 16.636 55.8397 16.762C55.9717 16.882 56.0917 17.026 56.1997 17.194L59.4577 22ZM65.9956 20.047C66.4636 20.047 66.8806 19.969 67.2466 19.813C67.6186 19.657 67.9306 19.438 68.1826 19.156C68.4346 18.874 68.6266 18.532 68.7586 18.13C68.8966 17.728 68.9656 17.278 68.9656 16.78V8.986H71.3866V16.78C71.3866 17.554 71.2606 18.271 71.0086 18.931C70.7626 19.585 70.4056 20.152 69.9376 20.632C69.4756 21.106 68.9116 21.478 68.2456 21.748C67.5796 22.012 66.8296 22.144 65.9956 22.144C65.1556 22.144 64.4026 22.012 63.7366 21.748C63.0706 21.478 62.5036 21.106 62.0356 20.632C61.5736 20.152 61.2166 19.585 60.9646 18.931C60.7186 18.271 60.5956 17.554 60.5956 16.78V8.986H63.0166V16.771C63.0166 17.269 63.0826 17.719 63.2146 18.121C63.3526 18.523 63.5476 18.868 63.7996 19.156C64.0576 19.438 64.3696 19.657 64.7356 19.813C65.1076 19.969 65.5276 20.047 65.9956 20.047ZM85.088 8.986V22H83.846C83.654 22 83.492 21.97 83.36 21.91C83.234 21.844 83.111 21.736 82.991 21.586L76.196 12.91C76.232 13.306 76.25 13.672 76.25 14.008V22H74.117V8.986H75.386C75.488 8.986 75.575 8.992 75.647 9.004C75.725 9.01 75.791 9.028 75.845 9.058C75.905 9.082 75.962 9.121 76.016 9.175C76.07 9.223 76.13 9.289 76.196 9.373L83.018 18.085C83 17.875 82.985 17.668 82.973 17.464C82.961 17.26 82.955 17.071 82.955 16.897V8.986H85.088ZM100.397 15.493C100.397 16.447 100.238 17.332 99.9201 18.148C99.6081 18.958 99.1641 19.66 98.5881 20.254C98.0121 20.848 97.3191 21.313 96.5091 21.649C95.6991 21.979 94.7991 22.144 93.8091 22.144C92.8251 22.144 91.9281 21.979 91.1181 21.649C90.3081 21.313 89.6121 20.848 89.0301 20.254C88.4541 19.66 88.0071 18.958 87.6891 18.148C87.3711 17.332 87.2121 16.447 87.2121 15.493C87.2121 14.539 87.3711 13.657 87.6891 12.847C88.0071 12.031 88.4541 11.326 89.0301 10.732C89.6121 10.138 90.3081 9.676 91.1181 9.346C91.9281 9.01 92.8251 8.842 93.8091 8.842C94.4691 8.842 95.0901 8.92 95.6721 9.076C96.2541 9.226 96.7881 9.442 97.2741 9.724C97.7601 10 98.1951 10.339 98.5791 10.741C98.9691 11.137 99.2991 11.581 99.5691 12.073C99.8391 12.565 100.043 13.099 100.181 13.675C100.325 14.251 100.397 14.857 100.397 15.493ZM97.9221 15.493C97.9221 14.779 97.8261 14.14 97.6341 13.576C97.4421 13.006 97.1691 12.523 96.8151 12.127C96.4611 11.731 96.0291 11.428 95.5191 11.218C95.0151 11.008 94.4451 10.903 93.8091 10.903C93.1731 10.903 92.6001 11.008 92.0901 11.218C91.5861 11.428 91.1541 11.731 90.7941 12.127C90.4401 12.523 90.1671 13.006 89.9751 13.576C89.7831 14.14 89.6871 14.779 89.6871 15.493C89.6871 16.207 89.7831 16.849 89.9751 17.419C90.1671 17.983 90.4401 18.463 90.7941 18.859C91.1541 19.249 91.5861 19.549 92.0901 19.759C92.6001 19.969 93.1731 20.074 93.8091 20.074C94.4451 20.074 95.0151 19.969 95.5191 19.759C96.0291 19.549 96.4611 19.249 96.8151 18.859C97.1691 18.463 97.4421 17.983 97.6341 17.419C97.8261 16.849 97.9221 16.207 97.9221 15.493ZM111.13 15.529C111.574 15.529 111.961 15.475 112.291 15.367C112.621 15.253 112.894 15.094 113.11 14.89C113.332 14.68 113.497 14.428 113.605 14.134C113.713 13.834 113.767 13.501 113.767 13.135C113.767 12.787 113.713 12.472 113.605 12.19C113.497 11.908 113.335 11.668 113.119 11.47C112.903 11.272 112.63 11.122 112.3 11.02C111.97 10.912 111.58 10.858 111.13 10.858H109.321V15.529H111.13ZM111.13 8.986C112 8.986 112.753 9.088 113.389 9.292C114.025 9.496 114.55 9.781 114.964 10.147C115.378 10.513 115.684 10.951 115.882 11.461C116.086 11.971 116.188 12.529 116.188 13.135C116.188 13.765 116.083 14.344 115.873 14.872C115.663 15.394 115.348 15.844 114.928 16.222C114.508 16.6 113.98 16.894 113.344 17.104C112.714 17.314 111.976 17.419 111.13 17.419H109.321V22H106.9V8.986H111.13ZM124.007 17.086L122.423 12.757C122.345 12.565 122.264 12.337 122.18 12.073C122.096 11.809 122.012 11.524 121.928 11.218C121.85 11.524 121.769 11.812 121.685 12.082C121.601 12.346 121.52 12.577 121.442 12.775L119.867 17.086H124.007ZM128.282 22H126.41C126.2 22 126.029 21.949 125.897 21.847C125.765 21.739 125.666 21.607 125.6 21.451L124.628 18.796H119.237L118.265 21.451C118.217 21.589 118.124 21.715 117.986 21.829C117.848 21.943 117.677 22 117.473 22H115.583L120.704 8.986H123.17L128.282 22ZM134.55 20.047C135.018 20.047 135.435 19.969 135.801 19.813C136.173 19.657 136.485 19.438 136.737 19.156C136.989 18.874 137.181 18.532 137.313 18.13C137.451 17.728 137.52 17.278 137.52 16.78V8.986H139.941V16.78C139.941 17.554 139.815 18.271 139.563 18.931C139.317 19.585 138.96 20.152 138.492 20.632C138.03 21.106 137.466 21.478 136.8 21.748C136.134 22.012 135.384 22.144 134.55 22.144C133.71 22.144 132.957 22.012 132.291 21.748C131.625 21.478 131.058 21.106 130.59 20.632C130.128 20.152 129.771 19.585 129.519 18.931C129.273 18.271 129.15 17.554 129.15 16.78V8.986H131.571V16.771C131.571 17.269 131.637 17.719 131.769 18.121C131.907 18.523 132.102 18.868 132.354 19.156C132.612 19.438 132.924 19.657 133.29 19.813C133.662 19.969 134.082 20.047 134.55 20.047ZM150.295 20.002V22H142.672V8.986H145.093V20.002H150.295ZM158.899 17.086L157.315 12.757C157.237 12.565 157.156 12.337 157.072 12.073C156.988 11.809 156.904 11.524 156.82 11.218C156.742 11.524 156.661 11.812 156.577 12.082C156.493 12.346 156.412 12.577 156.334 12.775L154.759 17.086H158.899ZM163.174 22H161.302C161.092 22 160.921 21.949 160.789 21.847C160.657 21.739 160.558 21.607 160.492 21.451L159.52 18.796H154.129L153.157 21.451C153.109 21.589 153.016 21.715 152.878 21.829C152.74 21.943 152.569 22 152.365 22H150.475L155.596 8.986H158.062L163.174 22Z" fill="white"/>
<path d="M21.6049 13.05C21.6049 12.615 21.7499 12.18 21.7499 11.6C21.7499 8.41002 19.1399 5.80002 15.9499 5.80002C13.6299 5.80002 11.745 7.10502 10.7299 8.99002C10.4399 8.84502 9.85995 8.70002 9.42495 8.70002C7.39495 8.70002 5.79995 10.295 5.79995 12.325C5.79995 12.615 5.79995 12.905 5.94495 13.05C3.33495 13.485 1.44995 15.515 1.44995 18.125C1.44995 20.88 3.76995 23.2 6.52495 23.2H21.0249C23.7799 23.2 26.0999 20.88 26.0999 18.125C26.0999 15.515 24.2149 13.34 21.6049 13.05Z" fill="white"/>
</svg>
