<svg width="14" height="14" viewBox="0 0 14 14" fill="none" xmlns="http://www.w3.org/2000/svg">
<path d="M13.4167 1.75001C12.8581 2.14403 12.2396 2.4454 11.585 2.64251C11.2337 2.23855 10.7668 1.95224 10.2475 1.8223C9.72813 1.69235 9.18141 1.72504 8.68125 1.91594C8.18109 2.10684 7.75163 2.44674 7.45095 2.88967C7.15026 3.33261 6.99286 3.8572 7.00004 4.39251V4.97584C5.97491 5.00242 4.95912 4.77506 4.04313 4.31402C3.12714 3.85297 2.33939 3.17254 1.75004 2.33334C1.75004 2.33334 -0.583292 7.58334 4.66671 9.91667C3.46535 10.7322 2.03422 11.141 0.583374 11.0833C5.83337 14 12.25 11.0833 12.25 4.37501C12.2495 4.21252 12.2339 4.05044 12.2034 3.89084C12.7987 3.30371 13.2189 2.56242 13.4167 1.75001V1.75001Z" fill="#101010"/>
</svg>
